<svg width="363" height="363" viewBox="0 0 363 363" fill="none" xmlns="http://www.w3.org/2000/svg">
<rect x="0.707107" y="181.019" width="255" height="255" transform="rotate(-45 0.707107 181.019)" stroke="#2B2D42"/>
<rect y="181.019" width="16" height="16" transform="rotate(-45 0 181.019)" fill="#327785"/>
<rect x="169.706" y="11.3137" width="16" height="16" transform="rotate(-45 169.706 11.3137)" fill="#327785"/>
<rect x="169.706" y="350.725" width="16" height="16" transform="rotate(-45 169.706 350.725)" fill="#327785"/>
<rect x="339.411" y="181.019" width="16" height="16" transform="rotate(-45 339.411 181.019)" fill="#327785"/>
<rect x="0.707107" y="181.019" width="31" height="31" transform="rotate(-45 0.707107 181.019)" stroke="#2B2D42"/>
<rect x="159.099" y="22.6274" width="31" height="31" transform="rotate(-45 159.099 22.6274)" stroke="#2B2D42"/>
<rect x="159.099" y="339.411" width="31" height="31" transform="rotate(-45 159.099 339.411)" stroke="#2B2D42"/>
<rect x="317.491" y="181.019" width="31" height="31" transform="rotate(-45 317.491 181.019)" stroke="#2B2D42"/>
<rect x="113.137" y="203.647" width="48" height="144" transform="rotate(-45 113.137 203.647)" fill="#8D99AE"/>
<rect x="113.137" y="271.529" width="144" height="48" transform="rotate(-45 113.137 271.529)" fill="#8D99AE"/>
<rect x="214.96" y="147.078" width="16" height="16" transform="rotate(-45 214.96 147.078)" fill="#2F2E41"/>
<rect x="169.706" y="147.078" width="16" height="16" transform="rotate(-45 169.706 147.078)" fill="#2F2E41"/>
<rect x="124.451" y="147.078" width="16" height="16" transform="rotate(-45 124.451 147.078)" fill="#2F2E41"/>
<rect x="158.392" y="67.8823" width="16" height="48" transform="rotate(-45 158.392 67.8823)" fill="#8D99AE"/>
<rect x="158.392" y="90.5097" width="48" height="16" transform="rotate(-45 158.392 90.5097)" fill="#8D99AE"/>
</svg>
